#!OML:ASF F:\VICON\USERDATA\INSTALL\rory3\rory3.ASF
:FULLY-SPECIFIED
:DEGREES
2453
root 0.340486 16.9752 0.210594 -9.21819 1.6838 -2.39949
lowerback -5.70112 -1.84342 -4.75403
upperback 3.44081 -2.11169 0.834014
thorax 7.02383 -1.28714 3.29539
lowerneck 24.9501 -17.4152 -31.771
upperneck 14.4821 -33.5625 20.4108
head 9.91261 -18.4653 8.91709
rclavicle -8.05078e-015 7.55382e-015
rhumerus 87.224 22.9828 11.639
rradius 49.4926
rwrist -14.2168
rhand 35.6556 15.5195
rfingers 7.12502
rthumb 58.7068 0.449769
lclavicle -8.05078e-015 7.55382e-015
lhumerus 58.0296 25.3748 26.7955
lradius 110.647
lwrist 61.2813
lhand 35.7544 23.9338
lfingers 7.12502
lthumb 58.7925 38.9223
rfemur 10.0402 8.61788 22.7851
rtibia 18.9504
rfoot -18.2363 -12.9709
rtoes -25.8696
lfemur 5.0298 -13.1063 -19.4441
ltibia 27.431
lfoot -21.1875 6.61536
ltoes -21.6178
2454
root 0.339744 16.972 0.221773 -9.34869 1.71157 -2.43267
lowerback -5.77949 -1.80811 -4.70896
upperback 3.43252 -2.06619 0.860002
thorax 7.0549 -1.26379 3.30124
lowerneck 24.8916 -17.3976 -31.734
upperneck 14.4594 -33.5288 20.4804
head 9.91033 -18.4446 8.94135
rclavicle 6.38596e-015 -5.96354e-015
rhumerus 86.9411 22.9506 10.6824
rradius 48.7366
rwrist -13.4079
rhand 35.8158 16.0647
rfingers 7.12502
rthumb 58.8456 1.12702
lclavicle 6.38596e-015 -5.96354e-015
lhumerus 58.3938 25.4352 27.0374
lradius 110.565
lwrist 61.2786
lhand 35.8932 24.0001
lfingers 7.12502
lthumb 58.9125 38.8735
rfemur 10.1789 8.60534 22.86
rtibia 18.9949
rfoot -18.3944 -13.0588
rtoes -25.5985
lfemur 5.20977 -13.1341 -19.4521
ltibia 27.4486
lfoot -21.2311 6.67849
ltoes -21.9125
2455
root 0.338992 16.9705 0.231634 -9.45571 1.7586 -2.32217
lowerback -5.85798 -1.77075 -4.77464
upperback 3.45051 -2.00208 0.799474
thorax 7.11378 -1.23523 3.28018
lowerneck 24.7337 -17.4743 -31.5629
upperneck 14.4353 -33.5644 20.5431
head 9.91505 -18.4424 8.92159
rclavicle -2.39039e-014 3.18055e-015
rhumerus 86.7162 22.8041 9.85019
rradius 47.9406
rwrist -12.7619
rhand 35.5678 16.1113
rfingers 7.12502
rthumb 58.6307 0.969641
lclavicle -2.39039e-014 3.18055e-015
lhumerus 58.8756 25.4836 27.3599
lradius 110.435
lwrist 61.239
lhand 36.4921 24.0931
lfingers 7.12502
lthumb 59.4293 38.4589
rfemur 10.2498 8.49008 22.7362
rtibia 19.045
rfoot -18.5546 -13.0955
rtoes -25.3029
lfemur 5.35194 -13.1197 -19.6099
ltibia 27.4828
lfoot -21.2927 6.75335
ltoes -22.403
2456
root 0.338497 16.9676 0.238292 -9.50797 1.75009 -2.34008
lowerback -5.98368 -1.74816 -4.71444
upperback 3.45465 -1.97018 0.790933
thorax 7.18491 -1.21791 3.23824
lowerneck 24.4929 -17.5213 -31.4343
upperneck 14.4748 -33.5547 20.5791
head 9.94382 -18.4155 8.89716
rclavicle 2.72583e-014 7.15625e-015
rhumerus 86.6841 22.6276 9.19358
rradius 47.0276
rwrist -12.1253
rhand 35.0439 16.1054
rfingers 7.12502
rthumb 58.1754 0.542439
lclavicle 2.72583e-014 7.15625e-015
lhumerus 59.3085 25.5517 27.6945
lradius 110.28
lwrist 61.1822
lhand 37.034 24.1346
lfingers 7.12502
lthumb 59.8943 38.0253
rfemur 10.2661 8.48209 22.7753
rtibia 19.1087
rfoot -18.5861 -13.1531
rtoes -25.2599
lfemur 5.41101 -13.1183 -19.5986
ltibia 27.5365
lfoot -21.3393 6.68828
ltoes -22.0336
2457
root 0.338341 16.9606 0.243335 -9.5562 1.74389 -2.43699
lowerback -6.07198 -1.7103 -4.53517
upperback 3.41825 -1.93132 0.782525
thorax 7.18523 -1.18911 3.13189
lowerneck 24.3667 -17.5459 -31.3419
upperneck 14.5347 -33.5553 20.5978
head 9.97074 -18.4046 8.88112
rclavicle -1.19768e-014 -5.56597e-015
rhumerus 86.7714 22.573 8.4404
rradius 45.9333
rwrist -11.474
rhand 34.5534 15.9066
rfingers 7.12502
rthumb 57.7474 -0.0393524
lclavicle -1.19768e-014 -5.56597e-015
lhumerus 59.7261 25.5869 28.0157
lradius 110.197
lwrist 61.2176
lhand 37.4289 24.3003
lfingers 7.12502
lthumb 60.2319 37.8349
rfemur 10.3258 8.51185 22.9049
rtibia 19.2032
rfoot -18.596 -13.1721
rtoes -25.3104
lfemur 5.43762 -13.0735 -19.481
ltibia 27.6021
lfoot -21.4822 6.28649
ltoes -20.0836
2458
root 0.337769 16.9538 0.250143 -9.63403 1.76943 -2.434
lowerback -6.14335 -1.66233 -4.46875
upperback 3.38769 -1.86826 0.754895
thorax 7.18412 -1.15343 3.07224
lowerneck 24.3465 -17.5249 -31.2897
upperneck 14.5006 -33.5512 20.789
head 9.9917 -18.4029 8.9435
rclavicle -6.21202e-016 1.98785e-015
rhumerus 86.7668 22.7601 7.27436
rradius 44.7562
rwrist -10.4537
rhand 34.3073 15.7548
rfingers 7.12502
rthumb 57.5321 -0.379128
lclavicle -6.21202e-016 1.98785e-015
lhumerus 60.2495 25.6203 28.4264
lradius 110.077
lwrist 61.375
lhand 37.844 24.7413
lfingers 7.12502
lthumb 60.5851 37.8924
rfemur 10.4722 8.51096 22.9152
rtibia 19.2674
rfoot -18.5856 -13.1233
rtoes -25.4614
lfemur 5.49263 -13.0769 -19.5029
ltibia 27.7065
lfoot -21.581 5.87991
ltoes -17.6549
2459
root 0.337413 16.9512 0.256631 -9.72191 1.81759 -2.42793
lowerback -6.1598 -1.62481 -4.43239
upperback 3.35222 -1.82063 0.748796
thorax 7.1496 -1.1267 3.05156
lowerneck 24.2425 -17.5111 -31.2418
upperneck 14.532 -33.5522 20.9896
head 10.0535 -18.3986 8.99726
rclavicle -9.19379e-015 7.95139e-015
rhumerus 86.5952 23.0002 5.89209
rradius 43.7031
rwrist -9.24132
rhand 34.4195 15.8012
rfingers 7.12502
rthumb 57.6303 -0.247324
lclavicle -9.19379e-015 7.95139e-015
lhumerus 60.7607 25.6051 28.931
lradius 109.996
lwrist 61.3039
lhand 38.2855 25.2674
lfingers 7.12502
lthumb 60.9594 37.9996
rfemur 10.6431 8.45702 22.9169
rtibia 19.312
rfoot -18.7746 -12.9995
rtoes -25.4202
lfemur 5.56527 -13.0871 -19.5373
ltibia 27.811
lfoot -21.6017 5.8307
ltoes -17.3365
2460
root 0.335754 16.9477 0.261439 -9.83093 1.80096 -2.49215
lowerback -6.14678 -1.58272 -4.36771
upperback 3.32722 -1.77287 0.775162
thorax 7.10936 -1.09961 3.04968
lowerneck 24.098 -17.4749 -31.2344
upperneck 14.5725 -33.5218 21.183
head 10.1212 -18.3782 9.0553
rclavicle -1.01132e-014 1.31198e-014
rhumerus 86.3393 23.0825 4.66442
rradius 42.9137
rwrist -8.22128
rhand 34.7268 15.9851
rfingers 7.12502
rthumb 57.8989 0.173298
lclavicle -1.01132e-014 1.31198e-014
lhumerus 61.1746 25.5911 29.3802
lradius 109.966
lwrist 61.2106
lhand 38.7092 25.4583
lfingers 7.12502
lthumb 61.3168 37.7777
rfemur 10.7833 8.50711 23.0322
rtibia 19.3275
rfoot -18.9714 -12.9725
rtoes -24.5569
lfemur 5.64894 -13.0685 -19.4785
ltibia 27.9164
lfoot -21.7235 5.93115
ltoes -17.7534
2461
root 0.335807 16.9417 0.266219 -9.95945 1.79592 -2.54069
lowerback -6.18939 -1.56484 -4.2821
upperback 3.3251 -1.75513 0.779574
thorax 7.12696 -1.08723 3.00755
lowerneck 24.0637 -17.418 -31.1727
upperneck 14.4981 -33.4289 21.2804
head 10.08 -18.3306 9.10817
rclavicle 3.87879e-014 6.75868e-015
rhumerus 86.1101 23.0803 3.46288
rradius 42.2069
rwrist -7.2834
rhand 34.917 16.1657
rfingers 7.12502
rthumb 58.0648 0.502575
lclavicle 3.87879e-014 6.75868e-015
lhumerus 61.5133 25.5821 29.7735
lradius 109.974
lwrist 61.1739
lhand 39.0255 25.757
lfingers 7.12502
lthumb 61.5825 37.7612
rfemur 10.8912 8.53538 23.1083
rtibia 19.3514
rfoot -19.0773 -12.9572
rtoes -23.8806
lfemur 5.74809 -13.0149 -19.4402
ltibia 28.0055
lfoot -21.8416 6.07152
ltoes -18.7754
2462
root 0.335739 16.9354 0.273314 -10.0795 1.79517 -2.64543
lowerback -6.27576 -1.55889 -4.15618
upperback 3.27965 -1.75853 0.824011
thorax 7.1253 -1.08323 2.98182
lowerneck 24.2155 -17.3714 -31.1814
upperneck 14.4157 -33.3872 21.2473
head 10.0095 -18.3219 9.12918
rclavicle -1.85118e-014 -3.57812e-015
rhumerus 85.8913 23.2588 2.20856
rradius 41.4648
rwrist -6.09861
rhand 34.9178 16.468
rfingers 7.12502
rthumb 58.0656 0.805559
lclavicle -1.85118e-014 -3.57812e-015
lhumerus 61.7837 25.5319 30.1554
lradius 109.908
lwrist 61.2409
lhand 39.4171 25.9435
lfingers 7.12502
lthumb 61.9102 37.5487
rfemur 11.0355 8.43784 23.227
rtibia 19.3521
rfoot -18.9633 -13.0323
rtoes -24.997
lfemur 5.84656 -13.0022 -19.3437
ltibia 28.1197
lfoot -21.9343 5.80563
ltoes -17.7239
2463
root 0.33582 16.93 0.280972 -10.2128 1.81072 -2.60735
lowerback -6.33664 -1.55289 -4.17141
upperback 3.25288 -1.74657 0.820951
thorax 7.13133 -1.07757 2.98776
lowerneck 24.3494 -17.2705 -31.2622
upperneck 14.3103 -33.3313 21.4393
head 9.99178 -18.313 9.23686
rclavicle -4.22417e-015 0
rhumerus 85.7053 23.5351 0.865636
rradius 40.5801
rwrist -4.50768
rhand 34.6683 16.8694
rfingers 7.12502
rthumb 57.8479 1.01223
lclavicle -4.22417e-015 0
lhumerus 62.0873 25.5119 30.5203
lradius 109.852
lwrist 61.2947
lhand 39.6344 26.2862
lfingers 7.12502
lthumb 62.0915 37.6658
rfemur 11.2382 8.3532 23.1875
rtibia 19.3466
rfoot -18.894 -13.0783
rtoes -25.9635
lfemur 5.98354 -13.0238 -19.4362
ltibia 28.235
lfoot -21.9824 5.65437
ltoes -16.8619
2464
root 0.334868 16.9245 0.282081 -10.3157 1.82506 -2.66006
lowerback -6.29957 -1.50785 -4.10976
upperback 3.17301 -1.69612 0.844687
thorax 7.0186 -1.04692 2.98622
lowerneck 24.5063 -17.1881 -31.2031
upperneck 14.1716 -33.2393 21.5349
head 9.90037 -18.28 9.31379
rclavicle 6.75868e-015 -1.98785e-015
rhumerus 85.4801 23.5451 0.158188
rradius 39.9969
rwrist -3.4749
rhand 33.9091 16.6993
rfingers 7.12502
rthumb 57.1829 0.266758
lclavicle 6.75868e-015 -1.98785e-015
lhumerus 62.5012 25.3744 30.9755
lradius 109.818
lwrist 61.1158
lhand 39.8481 26.5447
lfingers 7.12502
lthumb 62.2691 37.6994
rfemur 11.3659 8.34802 23.2751
rtibia 19.3469
rfoot -18.882 -13.1309
rtoes -25.6103
lfemur 6.02835 -12.9779 -19.3741
ltibia 28.3545
lfoot -22.0667 5.4965
ltoes -16.386
2465
root 0.333771 16.9225 0.282046 -10.3636 1.8303 -2.71929
lowerback -6.30458 -1.45981 -4.01408
upperback 3.20094 -1.64152 0.867512
thorax 7.04387 -1.01721 2.96299
lowerneck 24.0977 -17.3021 -30.9765
upperneck 14.3051 -33.2273 21.3913
head 9.92993 -18.2303 9.19703
rclavicle 1.19768e-014 -7.95139e-015
rhumerus 85.2885 23.0139 -0.291437
rradius 39.6034
rwrist -3.31384
rhand 32.9865 15.5774
rfingers 7.12502
rthumb 56.3701 -1.52159
lclavicle 1.19768e-014 -7.95139e-015
lhumerus 62.9932 25.3998 31.4559
lradius 109.829
lwrist 60.8843
lhand 40.0081 26.7843
lfingers 7.12502
lthumb 62.4019 37.7686
rfemur 11.4019 8.33115 23.3553
rtibia 19.3571
rfoot -18.8172 -13.1543
rtoes -25.2806
lfemur 6.0178 -12.9232 -19.2904
ltibia 28.4361
lfoot -22.0433 5.64407
ltoes -17.8308
